# xmcd
#
# Track frame offsets:
#	150
#	22145
#	38437
#	55622
#	70212
#	84425
#	106145
#
# Disc length: 1857 seconds
#
# Revision: 7
# Processed by: cddbd v1.5.2PL0 Copyright (c) Steve Scherf et al.
# Submitted via: audiograbber 1.83.01
#
DISCID=4c073f07
DTITLE=Jeff Beck - Beck-Ola - 2000 Remaster
DYEAR=1969
DGENRE=Rock
TTITLE0=All Shook Up
TTITLE1=Spanish Boots
TTITLE2=Girl From Mill Valley
TTITLE3=Jailhouse Rock
TTITLE4=Plynth (Water Down The Drain)
TTITLE5=The Hangman's Knee
TTITLE6=Rice Pudding
EXTD=
EXTT0=
EXTT1=
EXTT2=
EXTT3=
EXTT4=
EXTT5=
EXTT6=
PLAYORDER=
